<?xml version="1.0" encoding="UTF-8"?>
<svg id="Layer_1" width="800px" height="800px" fill="#000000" version="1.1" viewBox="0 0 512 512" xml:space="preserve" xmlns="http://www.w3.org/2000/svg">
<path id="path1" d="m256 106.67c29.419 0 53.333-23.936 53.333-53.333s-23.936-53.334-53.333-53.334c-29.44 0-53.333 23.936-53.333 53.333s23.893 53.334 53.333 53.334zm0-85.334c17.643 0 32 14.357 32 32s-14.379 32-32 32c-17.643 0-32-14.357-32-32 0-17.642 14.336-32 32-32z"/>
<path id="path2" d="m351.79 303.72-14.144-123.9c-3.37-29.547-26.752-51.819-54.421-51.819h-54.464c-27.648 0-51.051 22.293-54.4 51.819l-14.144 123.9c-1.173 10.368 2.027 20.672 8.768 28.224 5.803 6.507 13.525 10.304 21.909 10.773l11.776 159.4c0.448 5.568 5.056 9.877 10.667 9.877h85.333c5.589 0 10.219-4.309 10.667-9.877l11.776-159.4c8.363-0.469 16.107-4.245 21.909-10.773 6.72-7.574 9.92-17.856 8.768-28.224zm-24.725 14.016c-1.216 1.365-3.883 3.691-7.808 3.691h-8.107c-5.589 0-10.219 4.309-10.645 9.877l-11.776 159.36h-65.493l-11.797-159.36c-0.427-5.568-5.056-9.877-10.645-9.877h-8.107c-3.904 0-6.571-2.325-7.808-3.691-2.709-3.051-3.968-7.275-3.477-11.605l14.144-123.9c2.133-18.752 16.405-32.896 33.195-32.896h54.464c16.789 0 31.061 14.144 33.195 32.896l14.144 123.9c0.51 4.33-0.77 8.554-3.479 11.605z"/>
<path id="path4" d="m214.4 327.31c0.7739 2.573 0.91822 5.3366 1.2775 7.99 1.1378 11.468 1.9255 22.971 2.8338 34.459 2.8893 38.738 5.7166 77.481 8.495 116.23 7.0443 0.3354 14.1 0.23999 21.15 0.29375 12.26 0.0276 24.519 0.0125 36.779 0.015 1.2735-18.996 2.7255-37.98 4.11-56.969 2.3845-32.16 4.7811-64.342 7.2925-96.471 0.16929-1.859 0.27422-3.7618 0.84125-5.545h-82.779z" fill="#ccc"/></svg>
