<?xml version="1.0" encoding="UTF-8"?>
<svg id="Layer_1" width="800px" height="800px" version="1.1" viewBox="0 0 512 512" xml:space="preserve" xmlns="http://www.w3.org/2000/svg">


<path id="path2" d="m256.64 0.0034c-29.44 0-53.332 23.937-53.332 53.334s23.892 53.334 53.332 53.334c29.419 0 53.332-23.936 53.332-53.332s-23.936-53.335-53.332-53.335zm-27.239 128c-27.648 0-51.051 22.293-54.4 51.819l-14.144 123.9c-1.173 10.368 2.0265 20.672 8.7675 28.224 5.803 6.507 13.525 10.305 21.909 10.774l11.776 159.4c0.448 5.568 5.0565 9.8762 10.668 9.8762h85.332c5.589 0 10.22-4.3082 10.668-9.8762l11.775-159.4c8.363-0.469 16.108-4.2458 21.91-10.774 6.72-7.574 9.9195-17.856 8.7675-28.224l-14.144-123.9c-3.37-29.547-26.752-51.819-54.421-51.819z" fill="#fff"/><path id="path1" d="m256.64 0.0034c-29.44 0-53.332 23.937-53.332 53.334s23.892 53.334 53.332 53.334c29.419 0 53.332-23.936 53.332-53.332s-23.936-53.335-53.332-53.335zm0 21.334c17.643 0 32 14.357 32 32s-14.379 32-32 32c-17.643 0-32-14.357-32-32 0-17.642 14.336-32 32-32zm-27.239 106.66c-27.648 0-51.051 22.293-54.4 51.819l-14.144 123.9c-1.173 10.368 2.0265 20.672 8.7675 28.224 5.803 6.507 13.525 10.305 21.909 10.774l11.776 159.4c0.448 5.568 5.0565 9.8762 10.668 9.8762h85.332c5.589 0 10.22-4.3082 10.668-9.8762l11.775-159.4c8.363-0.469 16.108-4.2458 21.91-10.774 6.72-7.574 9.9195-17.856 8.7675-28.224l-14.144-123.9c-3.37-29.547-26.752-51.819-54.421-51.819zm-0.02 21.334h54.464c16.789 0 31.061 14.144 33.195 32.896l14.144 123.9c0.51 4.33-0.76975 8.554-3.4788 11.605-1.216 1.365-3.8825 3.6912-7.8075 3.6912h-8.1075c-5.589 0-10.219 4.3082-10.645 9.8762l-11.776 159.36h-65.492l-11.798-159.36c-0.427-5.568-5.056-9.8762-10.645-9.8762h-8.1062c-3.904 0-6.5718-2.3252-7.8088-3.6912-2.709-3.051-3.9672-7.275-3.4762-11.605l14.144-123.9c2.133-18.752 16.405-32.896 33.195-32.896z"/><path id="path4" d="m214.4 327.31c0.7739 2.573 0.91822 5.3366 1.2775 7.99 1.1378 11.468 1.9255 22.971 2.8338 34.459 2.8893 38.738 5.7166 77.481 8.495 116.23 7.0443 0.3354 14.1 0.23999 21.15 0.29375 12.26 0.0276 24.519 0.0125 36.779 0.015 1.2735-18.996 2.7255-37.98 4.11-56.969 2.3845-32.16 4.7811-64.342 7.2925-96.471 0.16929-1.859 0.27422-3.7618 0.84125-5.545h-82.779z" fill="#666"/></svg>
