<?xml version="1.0" encoding="UTF-8"?>
<svg id="Layer_1" width="800px" height="800px" fill="#000000" version="1.1" viewBox="0 0 512 512" xml:space="preserve" xmlns="http://www.w3.org/2000/svg">
<path id="path1" d="m256 106.67c29.419 0 53.333-23.936 53.333-53.333s-23.936-53.334-53.333-53.334c-29.44 0-53.333 23.936-53.333 53.333s23.893 53.334 53.333 53.334zm0-85.334c17.643 0 32 14.357 32 32s-14.379 32-32 32c-17.643 0-32-14.357-32-32 0-17.642 14.336-32 32-32z"/>
<path id="path2" d="m351.79 303.72-14.144-123.9c-3.37-29.547-26.752-51.819-54.421-51.819h-54.464c-27.648 0-51.051 22.293-54.4 51.819l-14.144 123.9c-1.173 10.368 2.027 20.672 8.768 28.224 5.803 6.507 13.525 10.304 21.909 10.773l11.776 159.4c0.448 5.568 5.056 9.877 10.667 9.877h85.333c5.589 0 10.219-4.309 10.667-9.877l11.776-159.4c8.363-0.469 16.107-4.245 21.909-10.773 6.72-7.574 9.92-17.856 8.768-28.224zm-24.725 14.016c-1.216 1.365-3.883 3.691-7.808 3.691h-8.107c-5.589 0-10.219 4.309-10.645 9.877l-11.776 159.36h-65.493l-11.797-159.36c-0.427-5.568-5.056-9.877-10.645-9.877h-8.107c-3.904 0-6.571-2.325-7.808-3.691-2.709-3.051-3.968-7.275-3.477-11.605l14.144-123.9c2.133-18.752 16.405-32.896 33.195-32.896h54.464c16.789 0 31.061 14.144 33.195 32.896l14.144 123.9c0.51 4.33-0.77 8.554-3.479 11.605z"/>
<path id="path4" d="m254.13 153.54c-8.113 0.0392-16.231-0.0663-24.339 0.2753-3.9637 0.19899-8.0717 0.3672-11.706 2.141-4.1097 1.8628-7.5357 4.9422-10.358 8.4182-2.3817 2.9461-4.4073 6.0434-5.8917 9.5505-0.87634 1.8385-1.1745 3.8597-1.3838 5.864-1.8836 14.555-3.5697 29.152-5.3061 43.737-3.0343 25.843-6.0634 51.687-8.8674 77.555-0.24468 2.6813-0.66116 5.358-0.73721 8.0485 0.33925 2.2098 1.5675 4.1844 2.916 5.9219 0.98082 1.1706 2.4267 1.8697 3.9476 1.9528 41.135 4.9539 82.407 1.5083 123.31 0.39066 2.5129-0.0541 5.384-0.10248 7.2831-2.0034 0.91635-0.8801 1.8072-1.8345 2.4935-2.8978 0.59468-1.654 0.3511-3.4584 0.3746-5.1807-0.35105-8.2186-1.367-16.433-2.2444-24.668-2.8554-25.833-5.8055-51.655-8.9095-77.459-1.0668-8.6152-2.1044-17.273-3.3594-25.877-0.46637-2.8347-1.5143-5.5317-2.6041-8.1757-1.7936-4.0602-4.7731-7.4769-7.9984-10.472-3.572-3.3967-8.1278-5.9345-13.088-6.4347-5.5669-0.63823-11.184-0.54325-16.778-0.65054-5.586-0.0536-11.172-0.0404-16.758-0.0361z" fill="#ccc"/></svg>
