<?xml version="1.0" encoding="UTF-8"?>
<svg id="Layer_1" width="800px" height="800px" version="1.1" viewBox="0 0 512 512" xml:space="preserve" xmlns="http://www.w3.org/2000/svg">


<path id="path2" d="m256 0.0034c-29.44 0-53.332 23.937-53.332 53.334s23.892 53.334 53.332 53.334c29.419 0 53.332-23.936 53.332-53.332s-23.936-53.335-53.332-53.335zm-27.239 128c-27.648 0-51.051 22.293-54.4 51.819l-14.144 123.9c-1.173 10.368 2.0265 20.672 8.7675 28.224 5.803 6.507 13.525 10.305 21.909 10.774l11.776 159.4c0.448 5.568 5.0565 9.8762 10.668 9.8762h85.332c5.589 0 10.22-4.3082 10.668-9.8762l11.775-159.4c8.363-0.469 16.108-4.2458 21.91-10.774 6.72-7.574 9.9195-17.856 8.7675-28.224l-14.144-123.9c-3.37-29.547-26.752-51.819-54.421-51.819z" fill="#fff"/><path id="path1" d="m256 0.0034c-29.44 0-53.332 23.937-53.332 53.334s23.892 53.334 53.332 53.334c29.419 0 53.332-23.936 53.332-53.332s-23.936-53.335-53.332-53.335zm0 21.334c17.643 0 32 14.357 32 32s-14.379 32-32 32c-17.643 0-32-14.357-32-32 0-17.642 14.336-32 32-32zm-27.239 106.66c-27.648 0-51.051 22.293-54.4 51.819l-14.144 123.9c-1.173 10.368 2.0265 20.672 8.7675 28.224 5.803 6.507 13.525 10.305 21.909 10.774l11.776 159.4c0.448 5.568 5.0565 9.8762 10.668 9.8762h85.332c5.589 0 10.22-4.3082 10.668-9.8762l11.775-159.4c8.363-0.469 16.108-4.2458 21.91-10.774 6.72-7.574 9.9195-17.856 8.7675-28.224l-14.144-123.9c-3.37-29.547-26.752-51.819-54.421-51.819zm-0.02 21.334h54.464c16.789 0 31.061 14.144 33.195 32.896l14.144 123.9c0.51 4.33-0.76975 8.554-3.4788 11.605-1.216 1.365-3.8825 3.6912-7.8075 3.6912h-8.1075c-5.589 0-10.219 4.3082-10.645 9.8762l-11.776 159.36h-65.492l-11.798-159.36c-0.427-5.568-5.056-9.8762-10.645-9.8762h-8.1062c-3.904 0-6.5718-2.3252-7.8088-3.6912-2.709-3.051-3.9672-7.275-3.4762-11.605l14.144-123.9c2.133-18.752 16.405-32.896 33.195-32.896z"/><path id="path4" d="m254.13 153.54c-8.113 0.0392-16.231-0.0663-24.339 0.2753-3.9637 0.19899-8.0717 0.3672-11.706 2.141-4.1097 1.8628-7.5357 4.9422-10.358 8.4182-2.3817 2.9461-4.4073 6.0434-5.8917 9.5505-0.87634 1.8385-1.1745 3.8597-1.3838 5.864-1.8836 14.555-3.5697 29.152-5.3061 43.737-3.0343 25.843-6.0634 51.687-8.8674 77.555-0.24468 2.6813-0.66116 5.358-0.73721 8.0485 0.33925 2.2098 1.5675 4.1844 2.916 5.9219 0.98082 1.1706 2.4267 1.8697 3.9476 1.9528 4.5711 0.65135 9.2472 0.21646 13.754 1.4738 3.2032 0.79136 5.7363 3.2865 7.1555 6.1954 1.7972 3.2446 1.8766 7.0377 2.3625 10.626 1.1378 11.468 1.926 22.971 2.8342 34.458 2.8893 38.738 5.7163 77.481 8.4947 116.23 7.0443 0.3354 14.1 0.24032 21.15 0.29408 12.26 0.0276 24.52 0.012 36.78 0.0145 1.2735-18.996 2.7249-37.98 4.1094-56.968 2.3845-32.16 4.7807-64.342 7.2921-96.471 0.20996-2.3056 0.28256-4.6891 1.3172-6.8125 1.5034-3.2718 4.2134-6.0517 7.5568-7.4306 3.3569-1.2138 6.9914-1.1024 10.508-1.2162 2.5129-0.0541 5.384-0.10248 7.2831-2.0034 0.91635-0.8801 1.8072-1.8345 2.4935-2.8978 0.59468-1.654 0.3511-3.4584 0.3746-5.1807-0.35105-8.2186-1.367-16.433-2.2444-24.668-2.8554-25.833-5.8055-51.655-8.9095-77.459-1.0668-8.6152-2.1044-17.273-3.3594-25.877-0.46637-2.8347-1.5143-5.5317-2.6041-8.1757-1.7936-4.0602-4.7731-7.4769-7.9984-10.472-3.572-3.3967-8.1278-5.9345-13.088-6.4347-5.5669-0.63823-11.184-0.54325-16.778-0.65054-5.586-0.0536-11.172-0.0404-16.758-0.0361z" fill="#666"/></svg>
